<?xml version="1.0" encoding="UTF-8"?>
<!-- Created with Inkscape (http://www.inkscape.org/) -->
<svg width="210mm" height="297mm" version="1.1" viewBox="0 0 210 297" xml:space="preserve" xmlns="http://www.w3.org/2000/svg"><g fill="none" stroke="#000" stroke-linecap="round" stroke-linejoin="round"><g transform="rotate(-30 306.98 -101.06)" stroke-width=".4252"><g transform="translate(6,10)"><title>CharNewline</title></g><g transform="translate(5,15)"><title>GreggN</title><path d="m0 0h4" stroke="#000" data-char="GreggN" data-head="E" data-kana="n" data-key="" data-model="E4" data-scroll-y="0" data-speed="0.03" data-speed-factor="1" data-tail="E"/></g></g><g transform="matrix(-.70711 .70711 .70711 .70711 102.78 134.4)" stroke-width=".4252"><g transform="translate(6,10)"><title>CharNewline</title></g><g id="model" transform="matrix(.70758 0 0 .70758 7.7163 12.792)"><title>GreggA</title><path d="m-1.0414 0.12877c-1.1765 0.3153-2.3144 0.7233-2.0215 1.8163 0.14273 0.53269 0.56773 0.66128 1.2739 0.72838 1.2515 0.119 3.0927-0.83956 2.8161-1.8717-0.2835-1.0577-1.3422-1.2161-1.3422-0.19224" stroke="#000" stroke-width=".60064" data-char="GreggA" data-head="C" data-kana="a" data-key="" data-model="C4" data-scroll-y="0" data-speed="0.03" data-speed-factor="1" data-tail="C"/></g></g><path d="m106.83 149.05c3.3538-2.9045 8.2562-5.1622 10.353-5.1622" stroke-width=".425"/></g></svg>
