<?xml version="1.0" encoding="UTF-8"?>
<svg xmlns="http://www.w3.org/2000/svg" xmlns:xlink="http://www.w3.org/1999/xlink" width="65" height="55" viewBox="0 0 65 55">
<defs>
<g>
<g id="glyph-0-0">
<path d="M 25.089844 -18.433594 C 25.089844 -17.644531 25.386719 -16.859375 25.988281 -16.257812 C 26.277344 -15.972656 26.277344 -15.972656 53.25 -0.410156 C 53.722656 -0.136719 54.253906 0 54.785156 0 C 56.480469 0 57.855469 -1.375 57.855469 -3.070312 C 57.855469 -3.859375 57.554688 -4.644531 56.957031 -5.246094 C 56.667969 -5.53125 56.667969 -5.53125 29.695312 -21.09375 C 29.222656 -21.367188 28.691406 -21.503906 28.160156 -21.503906 C 26.460938 -21.503906 25.089844 -20.128906 25.089844 -18.433594 Z M 25.089844 -18.433594 "/>
</g>
</g>
</defs>
<rect x="-6.5" y="-5.5" width="78" height="66" fill="rgb(100%, 100%, 100%)" fill-opacity="1"/>
<g fill="rgb(0%, 0%, 0%)" fill-opacity="1">
<use xlink:href="#glyph-0-0" x="-9" y="38.59375"/>
</g>
</svg>
